<?xml version="1.0" encoding="utf-8"?>
<!-- Generator: Adobe Illustrator 17.0.0, SVG Export Plug-In . SVG Version: 6.00 Build 0)  -->
<!DOCTYPE svg PUBLIC "-//W3C//DTD SVG 1.1//EN" "http://www.w3.org/Graphics/SVG/1.1/DTD/svg11.dtd">
<svg version="1.1" id="레이어_1" xmlns="http://www.w3.org/2000/svg" xmlns:xlink="http://www.w3.org/1999/xlink" x="0px"
	 y="0px" width="1188.095px" height="1340.476px" viewBox="0 0 1188.095 1340.476" enable-background="new 0 0 1188.095 1340.476"
	 xml:space="preserve">
<path fill="#E9E405" d="M1143.036,741.19c0,325.873-281.039,556.246-556.246,556.246c-307.206,0-556.246-249.04-556.246-556.246
	s249.04-556.246,556.246-556.246S1143.036,433.983,1143.036,741.19z"/>
<g>
	<g>
		<path fill="#B5B5B5" d="M277.272,1119.005c0,45.867-37.154,83.051-83.075,83.051c-45.88,0-83.063-37.184-83.063-83.051
			c0-45.924,37.183-83.104,83.063-83.104C240.117,1035.901,277.272,1073.08,277.272,1119.005z"/>
		<path fill="#B5B5B5" d="M1072.598,431.378c-45.908,0-83.133,37.196-83.133,83.116c0,7.56,1.076,14.84,2.988,21.797l-0.053-0.029
			c0.726,2.91,1.099,5.922,1.099,9.045c0,10.281-4.207,19.519-11.003,26.192l-72.076,64.66l0.045-0.041
			c-16.19,14.492-37.503,23.312-60.921,23.312c-16.121,0-31.175-4.195-44.295-11.529c-47.062-30.453-103.107-48.186-163.356-48.186
			c-0.078,0-0.144,0-0.255,0c-52.93-2.302-97.722-36.121-115.834-83.252l0.016,0.394l-62.074-165.084
			c-2.053-5.577-3.148-11.623-3.148-17.898c0-14.339,5.803-27.324,15.168-36.748l-0.184,0.053
			c27.986-26.631,45.572-64.192,45.572-105.89c0-80.728-65.449-146.156-146.155-146.156c-80.756,0-146.192,65.428-146.192,146.156
			c0,78.355,61.738,142.133,139.187,145.807l-0.283,0.123c21.272,0.883,39.206,14.553,46.393,33.518v-0.013l62.362,165.749
			l-0.119-0.078c4.835,13.633,7.49,28.331,7.49,43.631c0,38.332-16.58,72.782-42.941,96.61
			c-61.471,55.131-100.152,135.152-100.152,224.244c0,166.331,134.84,301.172,301.151,301.172
			c166.368,0,301.196-134.84,301.196-301.172c0-44.738-9.837-87.191-27.371-125.38l0.177,0.082c-0.632-1.1-1.104-2.319-1.703-3.427
			c-0.656-1.461-1.367-2.885-2.081-4.318c-5.105-11.397-8.081-23.951-8.081-37.224c0-26.767,11.566-50.85,29.874-67.541
			l-0.545,0.135l71.924-64.512l-0.024,0.07c6.501-5.7,14.959-9.148,24.272-9.148c4.863,0,9.5,0.957,13.757,2.672l-0.087-0.135
			c9.144,3.46,19.023,5.47,29.398,5.47c45.892,0,83.104-37.261,83.104-83.133C1155.702,468.574,1118.489,431.378,1072.598,431.378z"
			/>
	</g>
</g>
</svg>
